<svg id="Layer_1" width="100%" height="100%"  data-name="Layer 1" xmlns="http://www.w3.org/2000/svg" viewBox="0 0 702.99 132"><defs><style>.cls-1{font-size:100px;font-family:"Open Sans", sans-serif; font-weight:600;}.cls-1,.cls-2{fill:#f2f2f2;}</style></defs><title>morpheus-logo</title><text class="cls-1" transform="translate(209 98.5)">Morpheus</text><path class="cls-2" d="M67,0a66,66,0,1,0,66,66A66,66,0,0,0,67,0Zm0,98a45,45,0,1,1,45-45A45,45,0,0,1,67,98Z" transform="translate(-1)"/><path class="cls-2" d="M66,12.5A26.5,26.5,0,1,0,92.5,39,26.5,26.5,0,0,0,66,12.5ZM66,44A12.5,12.5,0,1,1,78.5,31.5,12.5,12.5,0,0,1,66,44Z" transform="translate(-1)"/></svg>