<?xml version="1.0" encoding="UTF-8" standalone="no"?>
<!DOCTYPE svg PUBLIC "-//W3C//DTD SVG 1.1//EN" "http://www.w3.org/Graphics/SVG/1.1/DTD/svg11.dtd">
<svg width="100%" height="100%" viewBox="0 0 250 250" version="1.1" xmlns="http://www.w3.org/2000/svg" xmlns:xlink="http://www.w3.org/1999/xlink" xml:space="preserve" xmlns:serif="http://www.serif.com/" style="fill-rule:evenodd;clip-rule:evenodd;stroke-linejoin:round;stroke-miterlimit:1.41421;">
    <g transform="matrix(1.89377,0,0,1.89377,-1.89377,0)">
        <path d="M67,0C30.793,0 1,29.793 1,66C1,102.207 30.793,132 67,132C103.207,132 133,102.207 133,66C133,29.793 103.207,0 67,0ZM67,98C42.314,98 22,77.686 22,53C22,28.314 42.314,8 67,8C91.686,8 112,28.314 112,53C112,77.686 91.686,98 67,98Z" style="fill:white;fill-rule:nonzero;"/>
    </g>
    <g transform="matrix(1.89377,0,0,1.89377,-1.89377,0)">
        <path d="M66,12.5C51.463,12.5 39.5,24.463 39.5,39C39.5,53.537 51.463,65.5 66,65.5C80.537,65.5 92.5,53.537 92.5,39C92.5,24.463 80.537,12.5 66,12.5ZM66,44C59.143,44 53.5,38.357 53.5,31.5C53.5,24.643 59.143,19 66,19C72.857,19 78.5,24.643 78.5,31.5C78.5,38.357 72.857,44 66,44Z" style="fill:white;fill-rule:nonzero;"/>
    </g>
</svg>
